name Walk7.mot
datacolumns 19
datarows 25
range 2.29000000 2.41000000
endheader

                time	   L_ground_force_vx	   L_ground_force_vy	   L_ground_force_vz	   L_ground_force_px	   L_ground_force_py	   L_ground_force_pz	   R_ground_force_vx	   R_ground_force_vy	   R_ground_force_vz	   R_ground_force_px	   R_ground_force_py	   R_ground_force_pz	   L_ground_torque_x	   L_ground_torque_y	   L_ground_torque_z	   R_ground_torque_x	   R_ground_torque_y	   R_ground_torque_z	
          2.29000000	         -0.00000000	         -0.00000001	          0.00000000	          0.00000000	          0.00000000	          0.00000000	         11.58590680	         38.45147544	          3.23945691	          0.19276684	          0.00000000	          0.03376443	          0.00000000	         -0.00000000	          0.00000000	          0.00000000	          0.08643004	          0.00000000	
          2.29500000	          0.00000000	         -0.00000000	         -0.00000000	          0.00000000	          0.00000000	          0.00000000	          7.43917267	         24.34461204	          2.14370156	          0.16080754	          0.00000000	          0.02810101	          0.00000000	         -0.00000000	          0.00000000	          0.00000000	          0.08219035	          0.00000000	
          2.30000000	          0.00000000	         -0.00000000	         -0.00000000	          0.00000000	          0.00000000	          0.00000000	          4.19465402	         13.38564831	          1.27091330	          0.12782876	          0.00000000	          0.02228881	          0.00000000	         -0.00000000	          0.00000000	          0.00000000	          0.07308762	          0.00000000	
          2.30500000	          0.00000000	          0.00000000	         -0.00000000	          0.00000000	          0.00000000	          0.00000000	          1.78227745	          5.29930637	          0.61069361	          0.09657205	          0.00000000	          0.01679909	          0.00000000	         -0.00000000	          0.00000000	          0.00000000	          0.06147056	          0.00000000	
          2.31000000	          0.00000000	          0.00000000	         -0.00000000	          0.00000000	          0.00000000	          0.00000000	          0.09431050	         -0.30541912	          0.13900903	          0.06889005	          0.00000000	          0.01195003	          0.00000000	         -0.00000000	          0.00000000	          0.00000000	          0.04915919	          0.00000000	
          2.31500000	          0.00000000	          0.00000000	         -0.00000000	          0.00000000	          0.00000000	          0.00000000	         -0.99560883	         -3.87546605	         -0.17446709	          0.04568975	          0.00000000	          0.00789532	          0.00000000	         -0.00000000	          0.00000000	          0.00000000	          0.03737625	          0.00000000	
          2.32000000	          0.00000000	          0.00000000	         -0.00000000	          0.00000000	          0.00000000	          0.00000000	         -1.61581237	         -5.85836548	         -0.36169501	          0.02719834	          0.00000000	          0.00467069	          0.00000000	         -0.00000000	          0.00000000	          0.00000000	          0.02686406	          0.00000000	
          2.32500000	          0.00000000	          0.00000000	         -0.00000000	         -0.00000000	          0.00000000	          0.00000000	         -1.88574566	         -6.66663460	         -0.45315495	          0.01318909	          0.00000000	          0.00223340	          0.00000000	         -0.00000000	          0.00000000	          0.00000000	          0.01799818	          0.00000000	
          2.33000000	          0.00000000	          0.00000000	         -0.00000000	         -0.00000000	          0.00000000	         -0.00000000	         -1.90970896	         -6.65771174	         -0.47596736	          0.00316214	          0.00000000	          0.00049378	          0.00000000	         -0.00000000	          0.00000000	          0.00000000	          0.01088923	          0.00000000	
          2.33500000	          0.00000000	          0.00000000	         -0.00000000	         -0.00000000	          0.00000000	         -0.00000000	         -1.77404128	         -6.12544518	         -0.45295325	         -0.00351804	          0.00000000	         -0.00066085	          0.00000000	         -0.00000000	          0.00000000	          0.00000000	          0.00546918	          0.00000000	
          2.34000000	          0.00000000	          0.00000000	         -0.00000000	         -0.00000000	          0.00000000	         -0.00000000	         -1.54673501	         -5.29966430	         -0.40237163	         -0.00752367	          0.00000000	         -0.00134904	          0.00000000	         -0.00000000	          0.00000000	          0.00000000	          0.00156087	          0.00000000	
          2.34500000	          0.00000000	          0.00000000	         -0.00000000	         -0.00000000	          0.00000000	         -0.00000000	         -1.27863987	         -4.35096765	         -0.33811188	         -0.00949738	          0.00000000	         -0.00168366	          0.00000000	          0.00000000	          0.00000000	          0.00000000	         -0.00106890	          0.00000000	
          2.35000000	          0.00000000	          0.00000000	         -0.00000000	         -0.00000000	          0.00000000	         -0.00000000	         -1.00559069	         -3.39847794	         -0.27016279	         -0.01001195	          0.00000000	         -0.00176509	          0.00000000	          0.00000000	          0.00000000	          0.00000000	         -0.00267079	          0.00000000	
          2.35500000	          0.00000000	          0.00000000	         -0.00000000	         -0.00000000	          0.00000000	         -0.00000000	         -0.75095948	         -2.51888622	         -0.20522174	         -0.00955011	          0.00000000	         -0.00167771	          0.00000000	          0.00000000	          0.00000000	          0.00000000	         -0.00348682	          0.00000000	
          2.36000000	          0.00000000	          0.00000000	         -0.00000000	         -0.00000000	          0.00000000	         -0.00000000	         -0.52827760	         -1.75560765	         -0.14734575	         -0.00849864	          0.00000000	         -0.00148899	          0.00000000	          0.00000000	          0.00000000	          0.00000000	         -0.00373436	          0.00000000	
          2.36500000	          0.00000000	          0.00000000	          0.00000000	         -0.00000000	          0.00000000	         -0.00000000	         -0.34369565	         -1.12728455	         -0.09857773	         -0.00715222	          0.00000000	         -0.00125021	          0.00000000	          0.00000000	          0.00000000	          0.00000000	         -0.00359776	          0.00000000	
          2.37000000	         -0.00000000	          0.00000000	          0.00000000	         -0.00000000	          0.00000000	         -0.00000000	         -0.19814466	         -0.63519854	         -0.05950743	         -0.00572313	          0.00000000	         -0.00099821	          0.00000000	          0.00000000	          0.00000000	          0.00000000	         -0.00322562	          0.00000000	
          2.37500000	         -0.00000000	         -0.00000000	          0.00000000	         -0.00000000	          0.00000000	         -0.00000000	         -0.08913478	         -0.26939679	         -0.02974609	         -0.00435405	          0.00000000	         -0.00075765	          0.00000000	          0.00000000	          0.00000000	          0.00000000	         -0.00273187	          0.00000000	
          2.38000000	         -0.00000000	         -0.00000000	          0.00000000	         -0.00000000	          0.00000000	         -0.00000000	         -0.01217937	         -0.01350919	         -0.00830817	         -0.00313173	          0.00000000	         -0.00054347	          0.00000000	          0.00000000	          0.00000000	          0.00000000	         -0.00219918	          0.00000000	
          2.38500000	         -0.00000000	         -0.00000000	          0.00000000	         -0.00000000	          0.00000000	         -0.00000000	          0.03813388	          0.15165499	          0.00609664	         -0.00210020	          0.00000000	         -0.00036314	          0.00000000	          0.00000000	          0.00000000	          0.00000000	         -0.00168364	          0.00000000	
          2.39000000	         -0.00000000	         -0.00000000	          0.00000000	         -0.00000000	          0.00000000	         -0.00000000	          0.06738287	          0.24557750	          0.01485199	         -0.00127260	          0.00000000	         -0.00021878	          0.00000000	          0.00000000	          0.00000000	          0.00000000	         -0.00121989	          0.00000000	
          2.39500000	         -0.00000000	         -0.00000000	          0.00000000	          0.00000000	          0.00000000	         -0.00000000	          0.08081051	          0.28638598	          0.01929201	         -0.00064123	          0.00000000	         -0.00010890	          0.00000000	          0.00000000	          0.00000000	          0.00000000	         -0.00082601	          0.00000000	
          2.40000000	         -0.00000000	         -0.00000000	          0.00000000	          0.00000000	          0.00000000	          0.00000000	          0.08303026	          0.28990599	          0.02061355	         -0.00018563	          0.00000000	         -0.00002982	          0.00000000	          0.00000000	          0.00000000	          0.00000000	         -0.00050810	          0.00000000	
          2.40500000	         -0.00000000	         -0.00000000	          0.00000000	          0.00000000	          0.00000000	          0.00000000	          0.07788705	          0.26923525	          0.01983074	          0.00012122	          0.00000000	          0.00002325	          0.00000000	          0.00000000	          0.00000000	          0.00000000	         -0.00026404	          0.00000000	
          2.41000000	         -0.00000000	         -0.00000000	          0.00000000	          0.00000000	          0.00000000	          0.00000000	          0.06842889	          0.23468626	          0.01776037	          0.00030841	          0.00000000	          0.00005544	          0.00000000	          0.00000000	          0.00000000	          0.00000000	         -0.00008665	          0.00000000	
